<?xml version="1.0" encoding="UTF-8"?>
<svg width="360px" height="86px" viewBox="0 0 360 86" version="1.1" xmlns="http://www.w3.org/2000/svg" xmlns:xlink="http://www.w3.org/1999/xlink">
    <title>Naviga_Logo_Trimmed_Naviga_Logo_Dark_Horizontal</title>
    <g id="Page-1" stroke="none" stroke-width="1" fill="none" fill-rule="evenodd">
        <g id="NAVIGA---Design-Guidelines" transform="translate(-914.000000, -1156.000000)">
            <g id="Naviga_Logo_Trimmed_Naviga_Logo_Dark_Horizontal" transform="translate(914.000000, 1156.000000)">
                <polygon id="Fill-1" fill="#1F0744" points="238.153846 57.2307692 249.230769 57.2307692 249.230769 9.23076923 238.153846 9.23076923"></polygon>
                <path d="M278.769059,47.2976895 C271.077793,47.2976895 264.820521,41.0210996 264.820521,33.3058229 C264.820521,25.5912356 271.077793,19.3153351 278.769059,19.3153351 C286.460325,19.3153351 292.717597,25.5912356 292.717597,33.3058229 C292.717597,41.0210996 286.460325,47.2976895 278.769059,47.2976895 Z M303.629766,9.48924915 L292.701446,9.48924915 L292.692512,12.5879061 C288.708393,9.87701212 283.931162,8.30769231 278.769059,8.30769231 C265.026359,8.30769231 253.846154,19.5214526 253.846154,33.3058229 C253.846154,47.0908825 265.026359,58.3053322 278.769059,58.3053322 C282.806097,58.3053322 286.667881,57.3557438 290.246509,55.4844859 L292.717597,54.192632 L292.717597,59.1456577 L292.695261,61.6521575 C292.27843,68.9944923 286.191258,74.8395451 278.769059,74.8395451 C272.200109,74.8395451 266.655882,70.271525 265.205393,64.0611134 L255.248533,69.0968618 C258.720977,79.0266958 268.199496,85.8461538 278.769059,85.8461538 C292.280836,85.8461538 303.31637,75.0039566 303.682686,61.5387583 L303.692308,59.1408322 L303.69162,40.4289424 L303.629766,9.48924915 L303.629766,9.48924915 Z" id="Fill-2" fill="#1F0744"></path>
                <polyline id="Fill-3" fill="#1F0744" points="208.615731 48.7045946 196.184088 9.23076923 184.615385 9.23076923 199.732724 57.2307692 217.498045 57.2307692 232.615385 9.23076923 221.047373 9.23076923 208.615731 48.7045946"></polyline>
                <path d="M73.9296661,30.3125606 C74.95587,17.4505007 85.8533582,7.38461538 98.7668251,7.38461538 C112.510603,7.38461538 123.692308,18.5672519 123.692308,32.3137074 L123.692308,57.2307692 L112.717493,57.2307692 L112.717493,32.3078642 C112.713713,24.6174385 106.45545,18.361019 98.7668251,18.361019 C91.0778565,18.361019 84.8195935,24.6174385 84.8165005,32.306833 L84.8161568,57.2307692 L73.8461538,57.2307692 L73.9296661,30.3125606" id="Fill-4" fill="#1F0744"></path>
                <path d="M165.606847,41.4138072 C164.404401,43.625361 162.711307,45.3643022 160.574539,46.5814927 L160.573853,46.5814927 C158.424056,47.8089204 155.996533,48.4309946 153.35986,48.4309946 C150.668327,48.4309946 148.228462,47.8099441 146.108151,46.5849051 C143.99127,45.3632784 142.29509,43.6205836 141.064871,41.4039113 C139.825051,39.1739308 139.196913,36.5648365 139.196913,33.6493119 C139.196913,30.734811 139.825051,28.1260579 141.064871,25.8950537 C142.292347,23.6831587 143.986469,21.9558195 146.097522,20.7621743 C148.222976,19.5623867 150.66627,18.9536208 153.35986,18.9536208 C155.998933,18.9536208 158.429541,19.5637517 160.583453,20.7645629 C162.716107,21.9558195 164.405772,23.6783814 165.606847,25.8848166 C166.820951,28.1192332 167.437089,30.7324223 167.437089,33.6493119 C167.437089,36.5675664 166.820951,39.1793906 165.606847,41.4138072 Z M167.350686,14.5322195 C165.849599,13.1543065 164.139019,12.0340271 162.236431,11.1850307 C159.326148,9.88799073 156.108652,9.23076923 152.670348,9.23076923 C148.050512,9.23076923 143.842121,10.2657395 140.160722,12.3059926 C136.467322,14.355459 133.535094,17.2583579 131.444956,20.9348399 C129.363047,24.5993787 128.307692,28.8771194 128.307692,33.6493119 C128.307692,38.4208219 129.362362,42.7118708 131.442899,46.4033673 C133.532008,50.1098782 136.466293,53.0288152 140.160722,55.0786228 C143.838349,57.1188759 148.047426,58.1538462 152.670348,58.1538462 C156.232771,58.1538462 159.545585,57.4502165 162.516899,56.0613839 C164.451031,55.1574485 166.184241,53.975064 167.695271,52.5302686 L167.695271,57.638579 L178.153846,57.638579 L178.153846,9.41571941 L167.437089,9.36862878 L167.350686,14.5322195 L167.350686,14.5322195 Z" id="Fill-5" fill="#1F0744"></path>
                <g id="Group-9">
                    <path d="M347.322339,41.4539152 C346.110834,43.6817331 344.407824,45.4337331 342.256798,46.6604082 L342.256107,46.6604082 C340.091965,47.8970534 337.648245,48.5237991 334.993979,48.5237991 C332.284142,48.5237991 329.828341,47.897741 327.693538,46.6635024 C325.562876,45.4327017 323.855379,43.6769199 322.616606,41.4436013 C321.369204,39.1968744 320.736529,36.5681868 320.736529,33.6311115 C320.736529,30.6947237 321.369204,28.0660361 322.616606,25.8182779 C323.852617,23.5901162 325.558044,21.8494615 327.683183,20.6468524 C329.822819,19.4383987 332.282416,18.8247174 334.993979,18.8247174 C337.650662,18.8247174 340.097488,19.4390863 342.265772,20.6496028 C344.412656,21.8494615 346.114286,23.5849592 347.322339,25.8079639 C348.544199,28.0595039 349.165484,30.6919733 349.165484,33.6311115 C349.165484,36.5705934 348.544199,39.202719 347.322339,41.4539152 Z M349.151678,9.37471272 L349.079195,14.370113 C347.567402,12.9818524 345.845062,11.8535039 343.929779,10.9981319 C341.000422,9.69100785 337.760767,9.02919466 334.299866,9.02919466 C329.648859,9.02919466 325.412733,10.0715934 321.707114,12.127168 C317.988725,14.1920251 315.036932,17.1167237 312.932848,20.8208148 C310.836702,24.5128728 309.77465,28.8230816 309.77465,33.6311115 C309.77465,38.4377661 310.836012,42.761383 312.930777,46.4806013 C315.034171,50.2152904 317.987344,53.1558038 321.707114,55.2213485 C325.408936,57.2769231 329.645753,58.3196656 334.299866,58.3196656 C337.886059,58.3196656 341.220978,57.6104082 344.212119,56.211146 C346.159156,55.3004223 347.902205,54.1091586 349.424353,52.6538571 L349.424353,57.8001852 L359.955129,57.8001852 L359.955129,9.39671586 L349.151678,9.37471272 L349.151678,9.37471272 Z" id="Fill-6" fill="#1F0744"></path>
                    <path d="M59.081419,11.5433972 L53.5305849,20.4460738 C56.0806136,24.2271758 57.5696261,28.7770126 57.5696261,33.6744301 C57.5696261,46.792427 46.8935379,57.4264757 33.7233365,57.4264757 C30.5637584,57.4264757 27.5508725,56.8090126 24.7909875,55.6975102 L13.0939214,60.2377206 C18.7973154,64.6386923 25.9503739,67.2653171 33.7233365,67.2653171 C52.348418,67.2653171 67.4470182,52.2258273 67.4470182,33.6744301 C67.4470182,25.1946264 64.2857143,17.4543344 59.081419,11.5433972 Z M9.87739214,33.6744301 C9.87739214,20.5564333 20.5538255,9.92204082 33.7233365,9.92204082 C38.6401151,9.92204082 43.2082838,11.40519 47.0043337,13.9451774 L55.9422052,8.41620094 C50.0075551,3.23239874 42.2370086,0.0835431711 33.7233365,0.0835431711 C15.098255,0.0835431711 0,15.1226892 0,33.6744301 C0,42.1542339 3.16130393,49.8941821 8.36559923,55.8054631 L13.9164334,46.9024427 C11.3664046,43.1216845 9.87739214,38.5715039 9.87739214,33.6744301 L9.87739214,33.6744301 Z" id="Fill-8" fill="#6950F6"></path>
                </g>
                <path d="M12,59.0721058 C12.0017814,59.0738263 12.003919,59.0755467 12.0057004,59.0769231 L21.2307692,53.5415583 C21.2293441,53.5405261 21.2275627,53.5394938 21.2261376,53.5384615 L12,59.0721058" id="Fill-10" fill="#6950F6"></path>
                <path d="M64.5976904,2.78692513 L64.6084457,2.76923077 L64.5799962,2.79802747 L26.7692308,26.2798307 L30.4985431,30.0095242 L30.4988901,30.0091772 C31.3787427,29.1296634 32.5940912,28.5849547 33.9367686,28.5849547 C36.6224702,28.5849547 38.7992034,30.7624018 38.7992034,33.4481281 C38.7992034,34.7904708 38.2548467,36.0058304 37.375341,36.8860381 L41.1046533,40.6153846 L64.5865882,2.80461949 L64.6153846,2.77582279 L64.5976904,2.78692513" id="Fill-11" fill="#ED3B3F"></path>
                <path d="M36.8860381,37.375341 L36.8860381,37.375341 C36.0058304,38.2551936 34.7904708,38.7995504 33.4474342,38.7995504 C30.7620549,38.7995504 28.5853017,36.6221232 28.5853017,33.9374624 C28.5853017,32.5944382 29.1293165,31.3790897 30.0091772,30.4988901 L26.2798307,26.7692308 L2.79768052,64.5799962 L2.76923077,64.6084457 L2.78657818,64.5976904 L2.77582279,64.6153846 L2.80461949,64.5865882 L40.6153846,41.1046533 L36.8860381,37.375341" id="Fill-12" fill="#F5F4F1"></path>
                <path d="M29.9132029,30.6149568 L29.9128571,30.6153026 C29.0358954,31.4924987 28.4936729,32.7037002 28.4936729,34.0421418 C28.4936729,36.717642 30.6632542,38.8876393 33.3397858,38.8876393 C34.6783973,38.8876393 35.8897526,38.34514 36.7670602,37.4682896 C37.6436762,36.5910934 38.1862444,35.3798919 38.1862444,34.0421418 C38.1862444,31.3656044 36.0166631,29.1956071 33.3397858,29.1956071 C32.00152,29.1956071 30.7901647,29.7384522 29.9132029,30.6149568 Z M53.1841578,20.7379423 L40.4841193,41.1848768 L20.0345883,53.8833027 C20.0359715,53.8843399 20.0377006,53.8853772 20.0390838,53.8864145 L2.76923077,64.6153846 L24.3906953,56.1905672 C27.155753,57.3084131 30.1742858,57.9294003 33.3397858,57.9294003 C46.5346714,57.9294003 57.2307692,47.2346605 57.2307692,34.0417961 C57.2307692,29.1164278 55.738966,24.540624 53.1841578,20.7379423 Z M26.195798,26.8983696 L46.6456748,14.1999437 C42.8425102,11.64546 38.2657796,10.1538462 33.3397858,10.1538462 C20.1455918,10.1538462 9.44914809,20.8489317 9.44914809,34.0417961 C9.44914809,38.9668186 10.9409513,43.5429682 13.4957595,47.3453041 L26.195798,26.8983696 L26.195798,26.8983696 Z" id="Fill-13" fill="#1F0744"></path>
            </g>
        </g>
    </g>
</svg>